# xmcd CD database file
#
# Track frame offsets:
#	150
#	12964
#	27428
#	39762
#	53741
#	66770
#	81838
#	95640
#	108931
#	123376
#	138624
#	153987
#
# Disc length: 2232 seconds
#
# Revision: 0
# Processed by: cddbd v1.5.2PL0 Copyright (c) Steve Scherf et al.
# Submitted via: CDex 1.51
#
DISCID=9608b60c
DTITLE=The Track Record - The Coolest Kind of Crazy
DYEAR=2007
DGENRE=Salsa
TTITLE0=Good Answer
TTITLE1=Wake Up to the World
TTITLE2=Available - Responsible
TTITLE3=Lightning in a Bottle
TTITLE4=No Destination
TTITLE5=Absolute
TTITLE6=The Making
TTITLE7=We Don't Remember Falling
TTITLE8=Take Advantage
TTITLE9=Cameras Everywhere
TTITLE10=Lazy Love
TTITLE11=A Hot Day in the City
EXTD=YEAR: 2007
EXTT0=
EXTT1=
EXTT2=
EXTT3=
EXTT4=
EXTT5=
EXTT6=
EXTT7=
EXTT8=
EXTT9=
EXTT10=
EXTT11=
PLAYORDER=
